<?xml version="1.0" encoding="iso-8859-1"?>
<!-- Generator: Adobe Illustrator 19.0.0, SVG Export Plug-In . SVG Version: 6.00 Build 0)  -->
<svg version="1.1" id="Layer_1" xmlns="http://www.w3.org/2000/svg" xmlns:xlink="http://www.w3.org/1999/xlink" x="0px" y="0px"
	 viewBox="0 0 512 512" style="enable-background:new 0 0 512 512;" xml:space="preserve">
<path style="fill:#22313F;" d="M384.731,353.093l-73.025-42.161c-9.432-5.445-12.664-17.505-7.217-26.938
	c5.445-9.432,17.504-12.662,26.936-7.217l73.025,42.161c9.432,5.445,12.664,17.505,7.217,26.936
	C406.219,355.308,394.16,358.536,384.731,353.093z"/>
<path style="fill:#FF7876;" d="M398.685,405.172L398.685,405.172c-27.686-15.983-37.16-51.328-21.172-79.017
	c15.95-27.623,51.396-37.119,79.017-21.172c27.686,15.983,37.16,51.328,21.172,79.017
	C461.784,411.572,426.487,421.224,398.685,405.172z"/>
<path style="fill:#22313F;" d="M304.487,228.006c-5.446-9.431-2.215-21.491,7.217-26.936l73.025-42.161
	c9.432-5.444,21.491-2.215,26.936,7.217c5.446,9.431,2.215,21.491-7.217,26.938l-73.025,42.161
	C321.99,240.668,309.932,237.436,304.487,228.006z"/>
<path style="fill:#FFD155;" d="M377.512,185.845c-15.984-27.684-6.518-63.03,21.172-79.017
	c27.686-15.986,63.032-6.517,79.016,21.173c15.986,27.683,6.518,63.03-21.172,79.016
	C428.908,222.965,393.462,213.469,377.512,185.845z"/>
<path style="fill:#2C3E50;" d="M256,200.011c-10.89,0-19.719-8.829-19.719-19.719V95.971c0-10.89,8.829-19.719,19.719-19.719
	c10.89,0,19.719,8.829,19.719,19.719v84.322C275.719,191.182,266.89,200.011,256,200.011z"/>
<path style="fill:#22313F;" d="M256,76.251v123.76c10.89,0,19.719-8.829,19.719-19.719V95.971
	C275.719,85.079,266.89,76.251,256,76.251z"/>
<path style="fill:#2C3E50;" d="M256,435.749c-10.89,0-19.719-8.829-19.719-19.719v-84.322c0-10.89,8.829-19.719,19.719-19.719
	c10.89,0,19.719,8.829,19.719,19.719v84.322C275.719,426.921,266.89,435.749,256,435.749z"/>
<path style="fill:#22313F;" d="M256,311.989v123.76c10.89,0,19.719-8.829,19.719-19.719v-84.322
	C275.719,320.818,266.89,311.989,256,311.989z"/>
<g>
	<path style="fill:#2C3E50;" d="M180.576,235.223l-73.025-42.161c-9.432-5.445-12.664-17.505-7.217-26.938
		c5.445-9.432,17.504-12.662,26.936-7.217l73.025,42.161c9.432,5.445,12.664,17.505,7.217,26.936
		C202.065,237.44,190.005,240.667,180.576,235.223z"/>
	<path style="fill:#2C3E50;" d="M100.333,345.875c-5.446-9.431-2.215-21.491,7.217-26.936l73.025-42.161
		c9.432-5.444,21.491-2.215,26.936,7.217c5.446,9.431,2.215,21.491-7.217,26.938l-73.025,42.161
		C117.836,358.538,105.777,355.305,100.333,345.875z"/>
</g>
<path style="fill:#51B3DA;" d="M256,351.427c-52.619,0-95.428-42.808-95.428-95.428S203.38,160.572,256,160.572
	s95.428,42.808,95.428,95.428S308.619,351.427,256,351.427z"/>
<path style="fill:#FF9392;" d="M256,115.69c-31.896,0-57.844-25.949-57.844-57.844C198.156,25.949,224.104,0,256,0
	c31.896,0,57.844,25.949,57.844,57.844C313.844,89.741,287.895,115.69,256,115.69z"/>
<path style="fill:#C7E9F4;" d="M256,512c-31.896,0-57.844-25.949-57.844-57.844c0-31.896,25.948-57.844,57.844-57.844
	s57.844,25.949,57.844,57.844C313.844,486.051,287.895,512,256,512z"/>
<path style="fill:#80D0E1;" d="M256,396.31V512c31.896,0,57.844-25.949,57.844-57.844C313.844,422.259,287.895,396.31,256,396.31z"
	/>
<path style="fill:#C7E9F4;" d="M55.469,207.017C27.784,191.033,18.309,155.689,34.298,128c15.983-27.684,51.326-37.16,79.017-21.172
	l0,0c27.686,15.983,37.16,51.328,21.172,79.017C118.547,213.451,83.105,222.974,55.469,207.017z"/>
<path style="fill:#FFDA79;" d="M34.298,383.999c-15.984-27.683-6.518-63.03,21.172-79.016c27.619-15.948,63.067-6.451,79.017,21.172
	c7.726,13.381,9.778,28.97,5.779,43.894c-3.999,14.925-13.569,27.398-26.951,35.124C85.562,421.197,50.252,411.637,34.298,383.999z"
	/>
<path style="fill:#238CC5;" d="M256,160.573v190.855c52.619,0,95.428-42.808,95.428-95.428S308.619,160.573,256,160.573z"/>
<path style="fill:#FF7876;" d="M256,0v115.69c31.896,0,57.844-25.949,57.844-57.844C313.844,25.949,287.895,0,256,0z"/>
<g>
</g>
<g>
</g>
<g>
</g>
<g>
</g>
<g>
</g>
<g>
</g>
<g>
</g>
<g>
</g>
<g>
</g>
<g>
</g>
<g>
</g>
<g>
</g>
<g>
</g>
<g>
</g>
<g>
</g>
</svg>
