<svg version="1.2" baseProfile="tiny-ps" xmlns="http://www.w3.org/2000/svg" viewBox="0 0 517 110" width="517" height="110">
	<title>Νέο έργο</title>
	<style>
		tspan { white-space:pre }
	</style>
	<path id="AutoNet " fill="#43c3a1" aria-label="AutoNet"  d="M85.67 102.26L14.05 102.26Q10.99 102.26 8.15 100.76Q5.31 99.2 3.67 96.37Q2.1 93.46 2.1 90.32Q2.1 87.19 19.95 51.4Q37.8 15.53 39.37 12.69Q40.94 9.86 43.77 8.29Q46.69 6.65 49.75 6.65Q52.88 6.65 55.72 8.29Q58.56 9.86 60.13 12.69Q61.7 15.53 79.62 51.4Q97.62 87.19 97.62 90.32Q97.62 93.46 95.97 96.37Q94.4 99.2 91.49 100.76Q88.65 102.26 85.67 102.26ZM33.32 78.24L66.18 78.24L49.75 44.61L33.32 78.24Z" />
	<path id="AutoNet " fill="#2b2b2b" aria-label="AutoNet"  d="M120.71 44.86Q127.88 44.86 127.92 51.8L127.88 73.59Q127.97 87.91 138.76 87.95Q149.52 87.86 149.47 73.55L149.47 52.02Q149.56 44.91 156.69 44.82Q163.81 45 163.86 52.07L163.86 73.59Q163.81 102.18 138.76 102.18Q113.58 102.36 113.54 73.59L113.54 52.02Q113.58 44.95 120.71 44.86ZM180.89 44.86L217.19 44.95Q223.86 45.04 223.91 51.89Q223.91 59.18 216.65 59.32L205.94 59.32L205.98 95.07Q205.89 102.09 198.77 102.18Q191.6 102.18 191.6 95.25L191.65 59.32L180.89 59.32Q173.72 59.32 173.72 52.11Q173.77 45 180.89 44.86ZM262.58 44.95Q269.84 44.95 276.7 48.67Q283.55 52.38 287.45 59.27Q291.35 66.16 291.35 73.63Q291.35 81.06 287.54 87.91Q283.78 94.71 276.92 98.51Q270.07 102.27 262.58 102.27Q255.15 102.27 248.29 98.51Q241.48 94.71 237.67 87.91Q233.91 81.06 233.91 73.63Q233.91 66.16 237.72 59.27Q241.57 52.38 248.43 48.67Q255.33 44.95 262.58 44.95ZM262.67 59.23Q259 59.23 255.55 61.06Q252.14 62.9 250.22 66.34Q248.29 69.79 248.29 73.55Q248.29 77.3 250.17 80.7Q252.1 84.11 255.51 85.98Q258.91 87.86 262.67 87.86Q266.39 87.86 269.8 85.98Q273.25 84.11 275.13 80.7Q277.01 77.3 277.01 73.55Q277.01 69.79 275.09 66.34Q273.16 62.9 269.71 61.06Q266.26 59.23 262.67 59.23ZM410.47 44.86L446.77 44.95Q453.44 45.04 453.49 51.89Q453.49 59.18 446.23 59.32L417.69 59.32L417.69 87.82L446.18 87.82Q453.4 87.86 453.4 95.07Q453.4 102.09 446.32 102.18L410.47 102.18Q403.35 102.18 403.3 95.25L403.3 52.11Q403.35 45 410.47 44.86ZM421.14 73.72Q421.18 66.57 428.22 66.48L442.64 66.48Q449.81 66.52 449.9 73.63Q449.77 80.79 442.64 80.79L428.26 80.79Q421.14 80.84 421.14 73.72ZM470.66 44.86L506.95 44.95Q513.63 45.04 513.67 51.89Q513.67 59.18 506.41 59.32L495.7 59.32L495.75 95.07Q495.66 102.09 488.54 102.18Q481.37 102.18 481.37 95.25L481.41 59.32L470.66 59.32Q463.49 59.32 463.49 52.11Q463.53 45 470.66 44.86Z" />
	<path id="AutoNet " fill="#e56353" aria-label="AutoNet"  d="M317.81 6.88Q324.31 7.4 328.19 11.8L363.96 57.36L363.96 17.32Q364.19 7.1 374.12 6.88Q387.56 7.1 387.71 17.62L387.78 91.82Q387.71 102.03 374.12 102.18Q367.99 102.11 364.11 97.26L328.19 51.84L328.19 91.82Q328.12 102.11 317.81 102.18Q304.29 102.18 304.22 91.67L304.22 17.24Q304.22 6.95 317.81 6.88Z" />
</svg>